# xmcd
#
# Track frame offsets:
#	150
#	17494
#	53412
#	103062
#	126703
#	145390
#
# Disc length: 2599 seconds
#
# Revision: 0
# Processed by: cddbd v1.5.2PL0 Copyright (c) Steve Scherf et al.
# Submitted via: audiograbber 1.83.01
#
DISCID=500a2506
DTITLE=Harold Melvin and The Blue Notes - Be for Real (The P.I.R Recordings 1972 
DTITLE=1975) CD3
DYEAR=2019
DGENRE=Soul
TTITLE0=Everybody's Talkin'
TTITLE1=Bad Luck (Tom Moulton Mix)
TTITLE2=Don't Leave Me This Way
TTITLE3=The Love I Lost
TTITLE4=If You Don't Know Me By Now (Live)
TTITLE5=I Miss You (Live)
EXTD=
EXTT0=
EXTT1=
EXTT2=
EXTT3=
EXTT4=
EXTT5=
PLAYORDER=
